<svg xmlns="http://www.w3.org/2000/svg"  viewBox="0 0 64 64"><defs fill="#55534E" /><path  d="m32,8c-5.55,0-9,3.83-9,10h18c0-6.17-3.45-10-9-10Z" fill="#55534E" /><path  d="m48,36h12v-4h-12v-6.01c2.74-.06,4.78-.94,6.76-2.92l4.24-4.24-2.83-2.83-4.24,4.24c-1.3,1.3-2.41,1.76-4.24,1.76h-13.69v32c6.15,0,10.63-3.12,12.7-8.47l1.54,1.54c1.3,1.3,1.76,2.41,1.76,4.24v2.69h4v-2.69c0-2.9-.88-5.02-2.93-7.07l-3.26-3.26c.12-.95.19-1.94.19-2.98v-2Z" fill="#55534E" /><path  d="m12.07,20.24l-4.24-4.24-2.83,2.83,4.24,4.24c1.98,1.98,4.02,2.85,6.76,2.92v6.01H4v4h12v2c0,1.04.07,2.03.19,2.98l-3.26,3.26c-2.05,2.05-2.93,4.17-2.93,7.07v2.69h4v-2.69c0-1.83.46-2.95,1.76-4.24l1.54-1.54c2.08,5.35,6.55,8.47,12.7,8.47V22h-13.69c-1.83,0-2.95-.46-4.24-1.76Z" fill="#55534E" /></svg>